HIERARCHY
ROOT Root
{
  OFFSET 0.0 0.0 0.0
  CHANNELS 6 Xposition Yposition Zposition Zrotation Yrotation Xrotation
  JOINT Hips
  {
    OFFSET 0.0 100.0 0.0
    CHANNELS 6 Xposition Yposition Zposition Zrotation Yrotation Xrotation
    JOINT Spine1
    {
      OFFSET 5.003913 -0.037094 -0.013727
      CHANNELS 3 Zrotation Yrotation Xrotation
      JOINT Spine2
      {
        OFFSET 7.125363 -1e-06 0.0
        CHANNELS 3 Zrotation Yrotation Xrotation
        JOINT Chest
        {
          OFFSET 7.594027 1e-06 0.0
          CHANNELS 3 Zrotation Yrotation Xrotation
          JOINT Neck1
          {
            OFFSET 26.313086 -0.460272 -0.181672
            CHANNELS 3 Zrotation Yrotation Xrotation
            JOINT Neck2
            {
              OFFSET 8.04591 0.0 0.0
              CHANNELS 3 Zrotation Yrotation Xrotation
              JOINT Head
              {
                OFFSET 6.432777 0.0 0.0
                CHANNELS 3 Zrotation Yrotation Xrotation
                JOINT HeadEnd
                {
                  OFFSET 16.169769 0.06451 0.00362
                  CHANNELS 3 Zrotation Yrotation Xrotation
                }
                JOINT Jaw
                {
                  OFFSET 0.108738 3.12938 0.002639
                  CHANNELS 3 Zrotation Yrotation Xrotation
                }
                JOINT LeftEye
                {
                  OFFSET 4.451729 8.166359 3.206392
                  CHANNELS 3 Zrotation Yrotation Xrotation
                }
                JOINT RightEye
                {
                  OFFSET 4.43689 8.135758 -3.222429
                  CHANNELS 3 Zrotation Yrotation Xrotation
                }
              }
            }
          }
          JOINT LeftShoulder
          {
            OFFSET 23.218927 5.195579 1.621656
            CHANNELS 3 Zrotation Yrotation Xrotation
            JOINT LeftArm
            {
              OFFSET 15.902122 2e-06 -2e-06
              CHANNELS 3 Zrotation Yrotation Xrotation
              JOINT LeftForeArm
              {
                OFFSET 28.739304 0.0 -1e-06
                CHANNELS 3 Zrotation Yrotation Xrotation
                JOINT LeftHand
                {
                  OFFSET 27.093979 -4e-06 0.0
                  CHANNELS 3 Zrotation Yrotation Xrotation
                  JOINT LeftHandThumb1
                  {
                    OFFSET 2.276787 3.380274 0.83384
                    CHANNELS 3 Zrotation Yrotation Xrotation
                    JOINT LeftHandThumb2
                    {
                      OFFSET 4.705307 -2e-06 -1e-06
                      CHANNELS 3 Zrotation Yrotation Xrotation
                      JOINT LeftHandThumb3
                      {
                        OFFSET 2.798515 0.0 3e-06
                        CHANNELS 3 Zrotation Yrotation Xrotation
                        JOINT LeftHandThumbEnd
                        {
                          OFFSET 3.180786 5e-06 -4e-06
                          CHANNELS 3 Zrotation Yrotation Xrotation
                        }
                      }
                    }
                  }
                  JOINT LeftHandIndex1
                  {
                    OFFSET 3.24778 2.352677 0.137192
                    CHANNELS 3 Zrotation Yrotation Xrotation
                    JOINT LeftHandIndex2
                    {
                      OFFSET 6.367104 1e-06 0.0
                      CHANNELS 3 Zrotation Yrotation Xrotation
                      JOINT LeftHandIndex3
                      {
                        OFFSET 3.662361 0.0 0.0
                        CHANNELS 3 Zrotation Yrotation Xrotation
                        JOINT LeftHandIndex4
                        {
                          OFFSET 2.329239 4e-06 -4e-06
                          CHANNELS 3 Zrotation Yrotation Xrotation
                          JOINT LeftHandIndexEnd
                          {
                            OFFSET 2.767822 0.0 0.0
                            CHANNELS 3 Zrotation Yrotation Xrotation
                          }
                        }
                      }
                    }
                  }
                  JOINT LeftHandMiddle1
                  {
                    OFFSET 3.163612 0.945023 -0.406112
                    CHANNELS 3 Zrotation Yrotation Xrotation
                    JOINT LeftHandMiddle2
                    {
                      OFFSET 6.276794 3e-06 0.0
                      CHANNELS 3 Zrotation Yrotation Xrotation
                      JOINT LeftHandMiddle3
                      {
                        OFFSET 4.356522 -1e-06 4e-06
                        CHANNELS 3 Zrotation Yrotation Xrotation
                        JOINT LeftHandMiddle4
                        {
                          OFFSET 2.996872 0.0 8e-06
                          CHANNELS 3 Zrotation Yrotation Xrotation
                          JOINT LeftHandMiddleEnd
                          {
                            OFFSET 2.323257 3e-06 -4e-06
                            CHANNELS 3 Zrotation Yrotation Xrotation
                          }
                        }
                      }
                    }
                  }
                  JOINT LeftHandRing1
                  {
                    OFFSET 2.882607 -0.309162 0.107445
                    CHANNELS 3 Zrotation Yrotation Xrotation
                    JOINT LeftHandRing2
                    {
                      OFFSET 6.033195 0.0 4e-06
                      CHANNELS 3 Zrotation Yrotation Xrotation
                      JOINT LeftHandRing3
                      {
                        OFFSET 4.350578 3e-06 0.0
                        CHANNELS 3 Zrotation Yrotation Xrotation
                        JOINT LeftHandRing4
                        {
                          OFFSET 2.651321 1e-06 -7e-06
                          CHANNELS 3 Zrotation Yrotation Xrotation
                          JOINT LeftHandRingEnd
                          {
                            OFFSET 1.937668 1e-06 -4e-06
                            CHANNELS 3 Zrotation Yrotation Xrotation
                          }
                        }
                      }
                    }
                  }
                  JOINT LeftHandPinky1
                  {
                    OFFSET 2.865311 -1.525436 0.575687
                    CHANNELS 3 Zrotation Yrotation Xrotation
                    JOINT LeftHandPinky2
                    {
                      OFFSET 5.549362 1e-06 -8e-06
                      CHANNELS 3 Zrotation Yrotation Xrotation
                      JOINT LeftHandPinky3
                      {
                        OFFSET 3.070969 0.0 -4e-06
                        CHANNELS 3 Zrotation Yrotation Xrotation
                        JOINT LeftHandPinky4
                        {
                          OFFSET 1.549675 1e-06 0.0
                          CHANNELS 3 Zrotation Yrotation Xrotation
                          JOINT LeftHandPinkyEnd
                          {
                            OFFSET 1.952118 0.0 0.0
                            CHANNELS 3 Zrotation Yrotation Xrotation
                          }
                        }
                      }
                    }
                  }
                }
              }
            }
          }
          JOINT RightShoulder
          {
            OFFSET 23.161718 5.296122 -1.380114
            CHANNELS 3 Zrotation Yrotation Xrotation
            JOINT RightArm
            {
              OFFSET -16.027195 -2e-06 1.1e-05
              CHANNELS 3 Zrotation Yrotation Xrotation
              JOINT RightForeArm
              {
                OFFSET -28.736641 4e-06 2e-06
                CHANNELS 3 Zrotation Yrotation Xrotation
                JOINT RightHand
                {
                  OFFSET -27.133617 6e-06 0.0
                  CHANNELS 3 Zrotation Yrotation Xrotation
                  JOINT RightHandThumb1
                  {
                    OFFSET -2.274328 -3.351035 -0.83067
                    CHANNELS 3 Zrotation Yrotation Xrotation
                    JOINT RightHandThumb2
                    {
                      OFFSET -4.703592 -3e-06 2e-06
                      CHANNELS 3 Zrotation Yrotation Xrotation
                      JOINT RightHandThumb3
                      {
                        OFFSET -2.794937 -4e-06 -3e-06
                        CHANNELS 3 Zrotation Yrotation Xrotation
                        JOINT RightHandThumbEnd
                        {
                          OFFSET -3.183853 4e-06 1e-06
                          CHANNELS 3 Zrotation Yrotation Xrotation
                        }
                      }
                    }
                  }
                  JOINT RightHandIndex1
                  {
                    OFFSET -3.253498 -2.33755 -0.127667
                    CHANNELS 3 Zrotation Yrotation Xrotation
                    JOINT RightHandIndex2
                    {
                      OFFSET -6.344433 0.0 0.0
                      CHANNELS 3 Zrotation Yrotation Xrotation
                      JOINT RightHandIndex3
                      {
                        OFFSET -3.654869 0.0 -8e-06
                        CHANNELS 3 Zrotation Yrotation Xrotation
                        JOINT RightHandIndex4
                        {
                          OFFSET -2.327587 -1e-06 0.0
                          CHANNELS 3 Zrotation Yrotation Xrotation
                          JOINT RightHandIndexEnd
                          {
                            OFFSET -2.770004 3e-06 8e-06
                            CHANNELS 3 Zrotation Yrotation Xrotation
                          }
                        }
                      }
                    }
                  }
                  JOINT RightHandMiddle1
                  {
                    OFFSET -3.168224 -0.944764 0.411762
                    CHANNELS 3 Zrotation Yrotation Xrotation
                    JOINT RightHandMiddle2
                    {
                      OFFSET -6.266689 -1e-06 -4e-06
                      CHANNELS 3 Zrotation Yrotation Xrotation
                      JOINT RightHandMiddle3
                      {
                        OFFSET -4.348904 0.0 0.0
                        CHANNELS 3 Zrotation Yrotation Xrotation
                        JOINT RightHandMiddle4
                        {
                          OFFSET -3.000237 2e-06 -4e-06
                          CHANNELS 3 Zrotation Yrotation Xrotation
                          JOINT RightHandMiddleEnd
                          {
                            OFFSET -2.32148 -4e-06 -4e-06
                            CHANNELS 3 Zrotation Yrotation Xrotation
                          }
                        }
                      }
                    }
                  }
                  JOINT RightHandRing1
                  {
                    OFFSET -2.885654 0.293261 -0.119232
                    CHANNELS 3 Zrotation Yrotation Xrotation
                    JOINT RightHandRing2
                    {
                      OFFSET -6.032833 -1e-06 -4e-06
                      CHANNELS 3 Zrotation Yrotation Xrotation
                      JOINT RightHandRing3
                      {
                        OFFSET -4.33881 0.0 -4e-06
                        CHANNELS 3 Zrotation Yrotation Xrotation
                        JOINT RightHandRing4
                        {
                          OFFSET -2.654903 -4e-06 -4e-06
                          CHANNELS 3 Zrotation Yrotation Xrotation
                          JOINT RightHandRingEnd
                          {
                            OFFSET -1.935123 0.0 4e-06
                            CHANNELS 3 Zrotation Yrotation Xrotation
                          }
                        }
                      }
                    }
                  }
                  JOINT RightHandPinky1
                  {
                    OFFSET -2.866241 1.503903 -0.60527
                    CHANNELS 3 Zrotation Yrotation Xrotation
                    JOINT RightHandPinky2
                    {
                      OFFSET -5.553177 -1e-06 0.0
                      CHANNELS 3 Zrotation Yrotation Xrotation
                      JOINT RightHandPinky3
                      {
                        OFFSET -3.062664 -1e-06 -4e-06
                        CHANNELS 3 Zrotation Yrotation Xrotation
                        JOINT RightHandPinky4
                        {
                          OFFSET -1.546532 2e-06 4e-06
                          CHANNELS 3 Zrotation Yrotation Xrotation
                          JOINT RightHandPinkyEnd
                          {
                            OFFSET -1.952339 0.0 -4e-06
                            CHANNELS 3 Zrotation Yrotation Xrotation
                          }
                        }
                      }
                    }
                  }
                }
              }
            }
          }
        }
      }
    }
    JOINT LeftLeg
    {
      OFFSET -8.443107 2.567604 10.043214
      CHANNELS 3 Zrotation Yrotation Xrotation
      JOINT LeftShin
      {
        OFFSET 43.229202 1e-06 -1e-06
        CHANNELS 3 Zrotation Yrotation Xrotation
        JOINT LeftFoot
        {
          OFFSET 42.298607 1e-06 1e-06
          CHANNELS 3 Zrotation Yrotation Xrotation
          JOINT LeftToeBase
          {
            OFFSET 14.165863 1e-06 0.0
            CHANNELS 3 Zrotation Yrotation Xrotation
            JOINT LeftToeEnd
            {
              OFFSET 6.714096 -0.234461 0.0
              CHANNELS 3 Zrotation Yrotation Xrotation
            }
          }
        }
      }
    }
    JOINT RightLeg
    {
      OFFSET -8.303924 2.592729 -10.047277
      CHANNELS 3 Zrotation Yrotation Xrotation
      JOINT RightShin
      {
        OFFSET -43.369686 0.0 0.0
        CHANNELS 3 Zrotation Yrotation Xrotation
        JOINT RightFoot
        {
          OFFSET -42.260784 4e-06 3e-06
          CHANNELS 3 Zrotation Yrotation Xrotation
          JOINT RightToeBase
          {
            OFFSET -14.222237 -2e-06 -2e-06
            CHANNELS 3 Zrotation Yrotation Xrotation
            JOINT RightToeEnd
            {
              OFFSET -6.660072 0.232574 -1e-06
              CHANNELS 3 Zrotation Yrotation Xrotation
            }
          }
        }
      }
    }
  }
}
MOTION
Frames: 4
Frame Time: 0.03333333333333333
0.0 0.0 0.0 0.0 -0.0 0.0 -18.723648 88.399353 134.262253 89.596825 -17.107771 92.850464 7.292778 0.345924 -0.19788 -7.443507 0.107395 -0.785291 20.624067 3.689517 -2.018961 3.240517 -0.65635 2.938148 -2.472689 -0.656833 -3.147978 -39.330269 -0.836086 -4.466553 6e-06 -0.0 0.0 -0.071652 -0.013581 -0.054576 -0.147067 -0.055351 -0.044617 -0.21909 0.024385 -0.073621 -93.769569 -75.315689 111.122658 11.545896 -59.688908 23.654875 96.90168 -0.754004 2.026763 3.380178 14.507095 23.462341 17.636673 -26.322924 52.411613 -19.466816 -14.395697 29.410688 -0.0 -8.774901 3e-06 16.066984 -18.636549 5.799829 -0.609779 -1.795665 -3.889352 -4.80712 -11.046888 -2.937882 3e-06 -20.976227 -5e-06 -5.020009 -25.033901 -4.031954 7e-06 -1e-06 -3e-06 -10.634588 -5.687007 -3.56561 10.573345 -17.923073 -3.113939 -1e-06 -13.821341 1e-06 -0.501765 -31.181938 -4.027086 -11.874881 -60.306179 8.057455 -13.982782 -7.150241 -2.875062 13.77282 -8.401546 -3.218278 0.34773 -34.211933 0.771666 -0.963059 -17.733614 2.621067 3e-06 -3e-06 -0.0 -17.34651 -20.095337 -4.201813 21.7577 -1.638381 3.866453 -2e-06 -6.338882 2e-06 -1.697588 -22.592037 -6.194112 0.0 -5e-06 -3e-06 36.994179 -76.14032 161.933945 47.340229 -47.559589 -10.275484 96.54496 -0.455247 -1.093554 3.041428 5.122172 38.854706 22.182133 -20.375875 49.93343 -16.701883 -16.743568 28.476624 -1.1e-05 -12.690639 1e-06 16.480024 -17.870808 2.126726 -0.10592 -1.513858 -4.27589 -5.039054 -5.612885 -2.953565 1e-05 -11.020553 -1.7e-05 -6.111297 -15.895411 -3.840522 1e-06 1e-06 1e-06 -10.283392 -5.680302 -4.341844 11.028327 -11.302424 -2.372653 -1.384256 -14.238625 -6.320164 -0.62538 -26.92432 -3.827663 -4.487616 -49.600281 -3.72083 -13.708552 -7.363492 -3.720947 18.141201 -14.052759 -3.242702 2.2e-05 -18.787319 -2.3e-05 -0.429701 -8.456075 2.55551 -3e-06 0.0 0.0 -15.923571 -20.094528 -5.473603 30.419292 -7.190843 1.735915 9e-06 -8.162943 -8e-06 -1.861864 -22.861565 -6.167998 1e-06 -3e-06 -1e-06 129.006927 1.684587 1.844864 87.494591 0.358046 -0.234847 -86.430138 -2.469391 3.498513 -10.646957 1.587022 2.127541 -0.999997 0.0 -0.0 -29.394236 3.246023 -4.798978 59.880985 -0.058436 -0.218734 -108.036789 -14.447288 -2.79415 -8.102967 0.81382 1.647395 -1.000006 -1e-06 0.0 
0.0 0.0 0.0 0.0 -0.0 0.0 -19.624573 88.059792 142.652695 92.021263 -17.310987 91.056778 7.340613 -0.583864 -0.088624 -7.303848 -0.157293 0.33544 20.270416 2.579901 -1.213811 3.21332 -1.61073 2.50484 -2.541148 -0.663973 -3.564479 -39.314556 -0.68144 -5.473075 6e-06 0.0 0.0 -0.114599 -0.009058 0.022042 -0.209911 -0.057518 0.020553 -0.296087 0.034322 0.010778 -94.09375 -73.762604 111.923241 2.401865 -57.991947 31.061871 101.446068 -1.299126 2.354643 3.979349 14.783851 20.540253 17.636599 -26.322784 52.411507 -19.466854 -14.395693 29.410666 1e-06 -8.774893 1.1e-05 16.127224 -18.512222 5.590899 -0.609776 -1.795668 -3.889349 -4.807118 -11.046885 -2.937885 9e-06 -20.976196 -4.6e-05 -5.019976 -25.033863 -4.031988 5e-06 -1e-06 -2e-06 -10.634585 -5.687012 -3.565599 10.573349 -17.923058 -3.113969 6e-06 -13.821316 -3.1e-05 -0.50171 -31.181881 -4.027156 -11.320968 -60.482277 7.697753 -13.982783 -7.150247 -2.875047 13.772818 -8.401537 -3.2183 0.34777 -34.211857 0.77157 -0.963014 -17.73357 2.621006 1e-06 -0.0 1e-06 -17.346516 -20.095343 -4.201808 21.7577 -1.638367 3.866423 -0.0 -6.338872 -1.1e-05 -1.697566 -22.592016 -6.194141 -3e-06 1e-06 -6e-06 39.54636 -78.299416 158.656952 58.167004 -47.867664 -18.011221 101.759048 -0.34232 -1.326439 4.454522 3.328966 39.488842 22.18211 -20.375986 49.933582 -16.701864 -16.74362 28.4767 1.2e-05 -12.69066 1.6e-05 16.10569 -17.624628 2.535297 -0.10592 -1.51386 -4.275899 -5.039064 -5.612899 -2.953571 -1.2e-05 -11.020579 -2e-06 -6.111343 -15.89546 -3.840509 3e-06 -1e-06 -0.0 -10.283403 -5.680317 -4.341853 11.028317 -11.302422 -2.372651 -1.384285 -14.238656 -6.320167 -0.625444 -26.924387 -3.827669 -4.771448 -49.605907 -3.058081 -13.70857 -7.363516 -3.72095 18.141195 -14.052756 -3.242698 -2.3e-05 -18.787363 -9e-06 -0.429728 -8.456105 2.555518 0.0 0.0 1e-06 -15.923608 -20.094568 -5.473599 30.419323 -7.190797 1.735914 -1.2e-05 -8.162963 -1e-06 -1.861934 -22.861643 -6.168009 2e-06 -3e-06 -0.0 119.57457 2.558122 -1.314953 79.806564 0.291829 -0.386095 -86.78064 -2.042609 0.565472 -10.249963 1.501489 2.100486 -0.999998 -0.0 0.0 -22.12854 1.10326 -5.023734 57.04858 -0.142971 -0.262689 -107.555702 -12.028786 -3.814431 -10.490259 0.78827 1.610775 -1.000005 -0.0 0.0 
0.0 0.0 0.0 0.0 -0.0 0.0 -20.333057 87.941193 151.57103 95.103409 -17.96463 88.678459 6.974693 -1.653832 0.13264 -7.239276 -0.48395 1.464903 19.575363 0.709615 -0.332833 3.22987 -2.579183 2.111384 -2.538322 -0.611874 -4.266979 -39.40501 -0.256667 -6.77243 6e-06 -0.0 -0.0 -0.115746 -0.007628 0.09135 -0.245486 -0.052909 0.064606 -0.350611 0.031325 0.107556 -94.598618 -72.174995 112.655609 -7.186409 -54.714413 38.04488 108.507874 -1.836717 2.28012 4.248957 14.626744 17.598677 17.636696 -26.322756 52.411034 -19.466551 -14.395555 29.410252 1.2e-05 -8.774819 -2e-05 16.11824 -18.530279 5.560039 -0.609779 -1.795649 -3.889315 -4.807098 -11.046797 -2.937828 -3.1e-05 -20.976021 4.7e-05 -5.020032 -25.033604 -4.031851 4e-06 -1e-06 -0.0 -10.63453 -5.686965 -3.56558 10.57324 -17.922924 -3.113847 -2.1e-05 -13.821214 2.8e-05 -0.501861 -31.181583 -4.026965 -11.228222 -60.657211 7.490294 -13.982703 -7.150186 -2.875037 13.772708 -8.401475 -3.218199 0.347655 -34.211601 0.771745 -0.963068 -17.73344 2.621056 -1e-06 -1e-06 2e-06 -17.346418 -20.095184 -4.201753 21.757538 -1.638366 3.866452 -2e-06 -6.338829 1.1e-05 -1.697638 -22.591791 -6.19397 -1e-06 -3e-06 -3e-06 50.008739 -80.932495 147.111084 68.538353 -48.489113 -26.277565 107.256516 -0.837564 -1.729985 4.559858 2.25728 39.731415 22.182045 -20.375738 49.932964 -16.701742 -16.743431 28.476318 -2.4e-05 -12.690529 -5e-06 15.83772 -17.623104 2.862244 -0.105916 -1.51385 -4.275856 -5.03901 -5.612838 -2.953538 2.3e-05 -11.020479 -4e-06 -6.111239 -15.895266 -3.840448 -1e-06 -3e-06 -4e-06 -10.283323 -5.680249 -4.341812 11.028254 -11.302361 -2.372619 -1.384242 -14.23851 -6.32008 -0.625386 -26.924091 -3.827563 -5.153699 -49.753365 -2.71036 -13.708462 -7.36343 -3.720917 18.141083 -14.052692 -3.242655 4e-05 -18.787188 -1.3e-05 -0.429688 -8.456018 2.555493 0.0 0.0 3e-06 -15.923448 -20.094368 -5.473555 30.419075 -7.190827 1.735918 1.7e-05 -8.162888 -6e-06 -1.861844 -22.861378 -6.167912 1e-06 -3e-06 -1e-06 113.248833 2.697399 -4.079214 68.207603 0.10236 -0.418892 -86.062027 -1.776726 -2.228555 -9.655723 1.512217 2.11376 -0.999996 -0.0 -0.0 -13.638019 -1.971838 -5.547661 50.467453 -0.429114 -0.089782 -104.897636 -9.688769 -4.841389 -14.185027 0.812724 1.582075 -1.000003 0.0 -0.0 
0.0 0.0 0.0 0.0 -0.0 0.0 -20.935665 88.21669 161.602829 99.003532 -18.577715 86.158051 6.266328 -2.932148 0.27072 -7.214787 -0.912573 2.504037 18.807301 -2.149866 0.696395 3.499628 -3.187453 1.826125 -2.503694 -0.69216 -5.27134 -39.833992 0.489949 -8.50942 7e-06 0.0 -0.0 -0.088148 -0.012768 0.095725 -0.318782 -0.05918 0.034793 -0.442536 0.026093 0.148794 -94.039299 -70.977592 112.449913 -15.335855 -50.870865 42.34774 115.903801 -1.999157 1.610084 4.439425 14.473597 14.359353 17.636683 -26.322701 52.411133 -19.466648 -14.395587 29.41036 1.1e-05 -8.774844 -1e-05 15.89352 -18.633116 5.709914 -0.609783 -1.795655 -3.889324 -4.807107 -11.046824 -2.937849 -2.3e-05 -20.976057 -6e-06 -5.020003 -25.03367 -4.031921 5e-06 2e-06 -1e-06 -10.634557 -5.686986 -3.565583 10.573264 -17.922956 -3.113896 -1e-05 -13.821237 -5e-06 -0.501781 -31.181644 -4.02707 -11.401913 -60.41473 7.533052 -13.982744 -7.150214 -2.875037 13.772736 -8.401485 -3.218234 0.347709 -34.211643 0.771644 -0.963036 -17.733459 2.621019 2e-06 -1e-06 -3e-06 -17.346468 -20.095243 -4.201767 21.757589 -1.638353 3.866446 -6e-06 -6.338834 -1e-06 -1.697605 -22.591841 -6.194056 -4e-06 -3e-06 -3e-06 71.943092 -82.759521 123.808136 77.70369 -50.048103 -34.249081 112.113052 -1.329316 -2.126987 4.330954 2.351923 40.217297 22.182219 -20.375866 49.933422 -16.701777 -16.743437 28.476507 6e-06 -12.690574 -3.1e-05 16.038658 -17.78421 2.938475 -0.105928 -1.51386 -4.275882 -5.039047 -5.612872 -2.953572 5e-06 -11.020528 -1.3e-05 -6.111279 -15.895365 -3.840527 0.0 0.0 2e-06 -10.283381 -5.680296 -4.341864 11.028271 -11.302393 -2.372615 -1.384272 -14.238575 -6.320151 -0.625409 -26.924198 -3.827649 -5.49362 -50.187733 -2.539347 -13.708533 -7.363492 -3.720971 18.141113 -14.052731 -3.242641 1.5e-05 -18.78726 -1.7e-05 -0.429707 -8.456048 2.555518 1e-06 0.0 -1e-06 -15.923543 -20.0945 -5.473637 30.419146 -7.190831 1.735991 9e-06 -8.162919 -1e-06 -1.86186 -22.861481 -6.16798 0.0 -3e-06 -3e-06 110.23558 3.181959 -5.879204 55.21048 0.01891 -0.193575 -86.679237 -2.168983 -4.877478 -10.305591 1.773088 2.074383 -1.000001 -0.0 0.0 -3.134205 -6.116892 -7.06122 39.219543 -0.713864 0.361105 -97.643784 -7.420013 -5.643883 -20.747242 0.828598 1.49845 -0.999999 0.0 0.0 
